/* XPM */
static char *noname[] = {
/* width height ncolors chars_per_pixel */
"20 30 2 1",
/* colors */
"  c Black",
". c White",
/* pixels */
"....................",
"..                 .",
".   .......        .",
".  ............. . .",
".               .. .",
".     .   .     .. .",
".     .   .     .. .",
".     .   .     .. .",
".     .   .     .. .",
".     .   .     .. .",
".     .....     .. .",
".               .. .",
".               .. .",
".     .....     .. .",
".     .   .     .. .",
".     .   .     .. .",
".     .....     .. .",
".     .         .. .",
".     .         .. .",
".               .. .",
".               .. .",
".     .. ..     .. .",
".     .. ..     .. .",
".     . . .     .. .",
".     . . .     .. .",
".     .   .     .  .",
".     .   .      . .",
".               ....",
".               ....",
"...................."
};
